<?xml version="1.0" encoding="UTF-8"?>
<svg width="6px" height="6px" viewBox="0 0 6 6" version="1.1" xmlns="http://www.w3.org/2000/svg" xmlns:xlink="http://www.w3.org/1999/xlink">
    <!-- Generator: Sketch 51.3 (57544) - http://www.bohemiancoding.com/sketch -->
    <title>Shape</title>
    <desc>Created with Sketch.</desc>
    <defs></defs>
    <g id="Page-1" stroke="none" stroke-width="1" fill="none" fill-rule="evenodd">
        <g id="Artboard" transform="translate(-288.000000, -28.000000)" fill="#FFFFFF" fill-rule="nonzero">
            <g id="Group" transform="translate(126.000000, 23.000000)">
                <g id="close" transform="translate(157.000000, 0.000000)">
                    <path d="M10.8617354,5.1382646 C10.6793738,4.95511353 10.3770166,4.95511353 10.1970233,5.1311596 L8.11131164,7.21766075 C8.04973499,7.2792374 7.95026501,7.2792374 7.88868836,7.21766075 L5.80929221,5.1382646 C5.62140448,4.95037687 5.30720567,4.95906076 5.1382646,5.1382646 C4.95511353,5.32062622 4.95511353,5.62298337 5.1311596,5.80297666 L7.21766075,7.88868836 C7.2792374,7.95026501 7.2792374,8.04973499 7.21766075,8.11131164 L5.1382646,10.1907078 C4.95037687,10.3785955 4.95906076,10.6927943 5.1382646,10.8617354 C5.32062622,11.0448865 5.62298337,11.0448865 5.80297666,10.8688404 L7.88868836,8.78233925 C7.95026501,8.7207626 8.04973499,8.7207626 8.11131164,8.78233925 L10.1907078,10.8617354 C10.3785955,11.0496231 10.6927943,11.0409392 10.8617354,10.8617354 C11.0448865,10.6793738 11.0448865,10.3770166 10.8688404,10.1970233 L8.78233925,8.11131164 C8.7207626,8.04973499 8.7207626,7.95026501 8.78233925,7.88868836 L10.8617354,5.80929221 C11.0496231,5.62140448 11.0409392,5.30720567 10.8617354,5.1382646 Z" id="Shape"></path>
                </g>
            </g>
        </g>
    </g>
</svg>