<?xml version="1.0" encoding="UTF-8"?>
<svg width="12px" height="12px" viewBox="0 0 12 12" version="1.1" xmlns="http://www.w3.org/2000/svg" xmlns:xlink="http://www.w3.org/1999/xlink">
    <!-- Generator: Sketch 51.3 (57544) - http://www.bohemiancoding.com/sketch -->
    <title>Combined Shape</title>
    <desc>Created with Sketch.</desc>
    <defs></defs>
    <g id="Page-1" stroke="none" stroke-width="1" fill="none" fill-rule="evenodd">
        <g id="Artboard" transform="translate(-273.000000, -41.000000)" fill="#FFFFFF" fill-rule="nonzero">
            <g id="Group" transform="translate(126.000000, 23.000000)">
                <path d="M158.974184,18.4528132 L158.974184,18.5282821 C158.99426,18.5758973 159.002827,18.6276258 158.999181,18.6792198 L158.999181,23.3834459 C158.999181,23.8002489 158.66343,24.1381345 158.249261,24.1381345 C157.835091,24.1381345 157.49934,23.8002489 157.49934,23.3834459 L157.49934,20.4904726 L154.17469,23.8362591 C154.041623,23.9861856 153.849398,24.0690914 153.649746,24.0626657 C153.45194,24.0598303 153.263259,23.9784532 153.124801,23.8362591 C152.981136,23.6985651 152.899825,23.5076332 152.899825,23.307977 C152.899825,23.1083208 152.981136,22.9173888 153.124801,22.7796949 L156.44945,19.5093773 L153.574754,19.5093773 C153.160584,19.5093773 152.824833,19.1714917 152.824833,18.7546887 C152.824833,18.3378856 153.160584,18 153.574754,18 L158.549229,18 L158.649218,18.0503126 L158.699213,18.0503126 L158.899192,18.2515629 L158.899192,18.3018755 C158.924189,18.3270318 158.924189,18.352188 158.949187,18.4025006 C158.950765,18.4218867 158.95972,18.4399108 158.974184,18.4528132 Z M156.199477,28.4901726 L156.199477,25.9493874 L157.699319,25.9493874 L157.699319,29.2448612 C157.699319,29.6616643 157.363568,29.9995499 156.949398,29.9995499 L147.750368,29.9995499 C147.549396,30.006653 147.354522,29.9294247 147.212326,29.7863243 C147.070129,29.6432239 146.993389,29.4471111 147.000447,29.2448612 L147.000447,20.0125031 C146.993389,19.8102533 147.070129,19.6141405 147.212326,19.47104 C147.354522,19.3279396 147.549396,19.2507113 147.750368,19.2578145 L151.025023,19.2578145 L151.025023,20.7671918 L148.500289,20.7671918 L148.500289,28.4901726 L156.199477,28.4901726 Z" id="Combined-Shape"></path>
            </g>
        </g>
    </g>
</svg>